<svg width="50" height="50" viewBox="0 0 65 67" fill="none" xmlns="http://www.w3.org/2000/svg">
<g filter="url(#filter0_d)">
<ellipse cx="32.3679" cy="27.1033" rx="24.3679" ry="22.9912" fill="#F8D801"/>
<path d="M25.2974 47.814L32.2177 54.1251L39.4389 47.814H25.2974Z" fill="#F8D801" stroke="#F8D801"/>
</g>
<path d="M44.846 39.2659C48.1342 36.0905 50.1667 31.7041 50.1667 26.8586C50.1684 17.1694 42.0331 9.3147 31.9998 9.3147C21.9664 9.3147 13.8311 17.1694 13.8311 26.8603C13.8311 30.4948 14.9743 33.8693 16.9336 36.6696" fill="white"/>
<path d="M40.4999 16.9487C38.8456 15.3511 36.1384 15.3511 34.484 16.9487L32.7922 18.5825L31.1004 16.9487C29.4461 15.3511 26.7388 15.3511 25.0845 16.9487C23.4302 18.5463 23.4302 21.1607 25.0845 22.7583C25.0845 22.7583 31.574 29.8002 32.9439 29.5781C33.9542 29.5238 35.0343 28.0381 35.801 27.2977L40.5016 22.7583C42.1543 21.1607 42.1543 18.5463 40.4999 16.9487Z" fill="#F8D801"/>
<path d="M32.6254 45.4824C30.1351 44.8437 27.8517 43.7661 25.6637 42.491C23.2355 41.0749 21.0245 39.3886 18.9854 37.4923C18.512 37.051 18.4837 36.3943 18.9138 35.9564C19.3487 35.5134 20.0164 35.5014 20.5133 35.9184C21.5777 36.8133 22.6449 37.7042 23.7116 38.5965C23.7868 38.6587 23.8679 38.7177 23.9507 38.7707C24.1412 38.8942 24.3421 38.9102 24.4841 38.7182C24.6229 38.5317 24.5131 38.3808 24.3548 38.2432C23.6544 37.6372 22.9406 37.0438 22.2681 36.4098C20.8366 35.0607 19.6051 33.5488 18.4582 31.9722C18.1298 31.5215 18.2516 30.8615 18.7014 30.5356C19.2282 30.1542 19.8786 30.2272 20.2812 30.7319C20.6728 31.2225 21.036 31.7315 21.4276 32.2222C22.6781 33.7901 24.07 35.2264 25.6581 36.4844C25.7124 36.527 25.7643 36.5721 25.8229 36.6109C25.9972 36.7271 26.1832 36.7665 26.3342 36.5895C26.4768 36.4247 26.4546 36.2451 26.297 36.0933C25.9776 35.787 25.6467 35.4921 25.3321 35.1806C23.287 33.1647 21.556 30.9224 20.1702 28.4375C19.8503 27.863 20.0151 27.2028 20.5485 26.9157C21.1266 26.6048 21.7731 26.7854 22.11 27.3818C23.3087 29.4966 24.7445 31.4468 26.4619 33.1974C27.0459 33.7929 27.6763 34.3475 28.2888 34.9183C28.4648 35.0812 28.6673 35.203 28.8987 35.0114C29.0691 34.8712 29.0331 34.6291 28.7994 34.4004C27.4645 33.0967 26.2765 31.6772 25.1893 30.1764C24.7818 29.6131 24.3939 29.0388 24.0088 28.4604C23.6648 27.942 23.794 27.2791 24.2825 26.963C24.8321 26.6066 25.4694 26.7257 25.8668 27.2721C26.5865 28.2612 27.2711 29.2749 28.0205 30.2413C29.3275 31.9257 30.8309 33.4366 32.5382 34.7537C32.8592 35.0014 33.2022 35.1893 33.6284 35.1877C33.947 35.1858 34.2386 35.1036 34.402 34.8181C34.5622 34.5381 34.4872 34.2525 34.2761 34.0376C34.0522 33.8098 33.8008 33.591 33.5238 33.428C32.6682 32.9261 31.8001 32.445 30.9268 31.9705C30.4168 31.6939 30.1685 31.1886 30.325 30.6811C30.474 30.2004 30.9531 29.8883 31.516 29.9246C31.651 29.9335 31.7918 29.9805 31.9141 30.0403C34.7426 31.4115 37.2535 33.2093 39.496 35.3472C40.449 36.2553 41.3736 37.1992 42.2316 38.1916C43.0323 39.1168 43.4737 40.2233 43.4766 41.4513C43.4827 43.2721 42.3657 44.799 40.5303 45.5143C39.2109 46.0274 37.8289 46.1224 36.4323 46.0637C35.1414 46.0064 33.8735 45.797 32.6254 45.4824Z" fill="black"/>
<path d="M33.0883 25.8602C32.6913 25.8602 32.3506 25.5706 32.308 25.1807L31.7918 20.3517C31.7475 19.9354 32.061 19.5619 32.492 19.5192C32.9248 19.4764 33.3098 19.7791 33.3541 20.1954L33.8703 25.0244C33.9146 25.4406 33.6011 25.8141 33.1701 25.8569C33.1428 25.8585 33.1156 25.8602 33.0883 25.8602Z" fill="black"/>
<path d="M30.3216 23.619C29.9246 23.619 29.5839 23.3294 29.5413 22.9394C29.497 22.5232 29.8105 22.1497 30.2415 22.1069L35.242 21.6084C35.6747 21.5656 36.0598 21.8684 36.1041 22.2846C36.1484 22.7009 35.8349 23.0744 35.4039 23.1171L30.4034 23.6157C30.3761 23.6173 30.3489 23.619 30.3216 23.619Z" fill="black"/>
<defs>
<filter id="filter0_d" x="0" y="0.112061" width="64.7358" height="66.6833" filterUnits="userSpaceOnUse" color-interpolation-filters="sRGB">
<feFlood flood-opacity="0" result="BackgroundImageFix"/>
<feColorMatrix in="SourceAlpha" type="matrix" values="0 0 0 0 0 0 0 0 0 0 0 0 0 0 0 0 0 0 127 0"/>
<feOffset dy="4"/>
<feGaussianBlur stdDeviation="4"/>
<feColorMatrix type="matrix" values="0 0 0 0 0.796078 0 0 0 0 0.776471 0 0 0 0 0.843137 0 0 0 1 0"/>
<feBlend mode="normal" in2="BackgroundImageFix" result="effect1_dropShadow"/>
<feBlend mode="normal" in="SourceGraphic" in2="effect1_dropShadow" result="shape"/>
</filter>
</defs>
</svg>
